<svg version="1.1" width="240" height="180" viewBox="0.0 0.0 960.0 720.0" fill="none" stroke="none" stroke-linecap="square" stroke-miterlimit="10" xmlns:xlink="http://www.w3.org/1999/xlink" xmlns="http://www.w3.org/2000/svg"><clipPath id="ge2a874bc71_5_32.0"><path d="m0 0l960.0 0l0 720.0l-960.0 0l0 -720.0z" clip-rule="nonzero"/></clipPath><g clip-path="url(#ge2a874bc71_5_32.0)"><path fill="#000000" fill-opacity="0.0" d="m0 0l960.0 0l0 720.0l-960.0 0z" fill-rule="evenodd"/><path fill="#5eb9e0" d="m749.5898 301.301l0 306.80313l-123.55908 0l0 -306.80313z" fill-rule="evenodd"/><path fill="#5eb9e0" d="m425.4201 608.05566l0 -496.15747l123.55902 0l0 496.15747z" fill-rule="evenodd"/><path fill="#5eb9e0" d="m467.4926 301.30023l242.74017 0l0 123.55905l-242.74017 0z" fill-rule="evenodd"/><path fill="#5eb9e0" d="m836.4376 608.05334l0 -496.1575l123.55908 0l0 496.1575z" fill-rule="evenodd"/><path fill="#5eb9e0" d="m0.0025608924 301.3023l0 306.80316l123.55905 0l0 -306.80316z" fill-rule="evenodd"/><path fill="#5eb9e0" d="m326.87756 608.0549l0 -496.15747l-123.55905 0l0 496.15747z" fill-rule="evenodd"/><path fill="#5eb9e0" d="m282.10153 301.30154l-242.74016 0l0 123.55905l242.74016 0z" fill-rule="evenodd"/><path fill="#5eb9e0" d="m282.10153 484.48126l-242.74016 0l0 123.55908l242.74016 0z" fill-rule="evenodd"/></g></svg>
