<svg version="1.1" width="210" height="80" viewBox="0.0 0.0 869.2913385826772 340.15748031496065" fill="none" stroke="none" stroke-linecap="square" stroke-miterlimit="10" xmlns:xlink="http://www.w3.org/1999/xlink" xmlns="http://www.w3.org/2000/svg"><clipPath id="ge3de29a237_0_43.0"><path d="m0 0l869.2913 0l0 340.15747l-869.2913 0l0 -340.15747z" clip-rule="nonzero"/></clipPath><g clip-path="url(#ge3de29a237_0_43.0)"><path fill="#000000" fill-opacity="0.0" d="m0 0l869.2913 0l0 340.15747l-869.2913 0z" fill-rule="evenodd"/><path fill="#959595" d="m561.80304 154.43959l-34.960632 0l0 56.818893l34.960632 0z" fill-rule="evenodd"/><path fill="#5eb9e0" d="m401.03394 145.02069l0 141.19684l-56.81891 0l0 -141.19684z" fill-rule="evenodd"/><path fill="#5eb9e0" d="m251.87373 286.16812l0 -228.28346l56.818893 0l0 228.28346z" fill-rule="evenodd"/><path fill="#5eb9e0" d="m271.23257 145.02034l111.71652 0l0 56.818893l-111.71652 0z" fill-rule="evenodd"/><path fill="#5eb9e0" d="m56.126366 145.02129l0 141.19685l56.818893 0l0 -141.19685z" fill-rule="evenodd"/><path fill="#5eb9e0" d="m206.53136 286.16776l0 -228.28346l-56.818893 0l0 228.28346z" fill-rule="evenodd"/><path fill="#5eb9e0" d="m185.92856 145.02095l-111.71653 0l0 56.818893l111.71653 0z" fill-rule="evenodd"/><path fill="#5eb9e0" d="m185.92856 229.33125l-111.71653 0l0 56.818893l111.71653 0z" fill-rule="evenodd"/><path fill="#5eb9e0" d="m440.99524 286.16705l0 -228.28348l56.81888 0l0 228.28348z" fill-rule="evenodd"/><path fill="#5eb9e0" d="m590.8779 184.78993l99.84015 99.840195l40.190674 -40.19069l-99.84015 -99.840195z" fill-rule="evenodd"/><path fill="#707070" d="m590.89307 184.80508l99.84021 99.84018l40.190674 -40.190674l-99.84021 -99.84018z" fill-rule="evenodd"/><path fill="#707070" d="m682.68054 93.0171l-78.98102 78.98104l40.190674 40.19069l78.98102 -78.98105z" fill-rule="evenodd"/><path fill="#707070" d="m742.2994 152.63594l-78.98102 78.98105l40.190674 40.19069l78.98102 -78.98105z" fill-rule="evenodd"/><path fill="#707070" d="m657.05804 118.63942l125.26398 125.26398l40.190674 -40.190674l-125.263916 -125.26398z" fill-rule="evenodd"/></g></svg>
