<svg version="1.1" width="320" height="240" viewBox="0.0 0.0 960.0 720.0" fill="none" stroke="none" stroke-linecap="square" stroke-miterlimit="10" xmlns:xlink="http://www.w3.org/1999/xlink" xmlns="http://www.w3.org/2000/svg"><clipPath id="ge3de29a237_0_43.0"><path d="m0 0l960.0 0l0 720.0l-960.0 0l0 -720.0z" clip-rule="nonzero"/></clipPath><g clip-path="url(#ge3de29a237_0_43.0)"><path fill="#000000" fill-opacity="0.0" d="m0 0l960.0 0l0 720.0l-960.0 0z" fill-rule="evenodd"/><path fill="#959595" d="m602.48376 330.46313l-34.960632 0l0 56.81888l34.960632 0z" fill-rule="evenodd"/><path fill="#5eb9e0" d="m441.71466 321.04422l0 141.19687l-56.81891 0l0 -141.19687z" fill-rule="evenodd"/><path fill="#5eb9e0" d="m292.55444 462.19165l0 -228.28346l56.81891 0l0 228.28346z" fill-rule="evenodd"/><path fill="#5eb9e0" d="m311.91327 321.04388l111.71655 0l0 56.81888l-111.71655 0z" fill-rule="evenodd"/><path fill="#5eb9e0" d="m96.80708 321.04483l0 141.19684l56.818893 0l0 -141.19684z" fill-rule="evenodd"/><path fill="#5eb9e0" d="m247.21208 462.19128l0 -228.28345l-56.818893 0l0 228.28345z" fill-rule="evenodd"/><path fill="#5eb9e0" d="m226.60928 321.0445l-111.71654 0l0 56.81888l111.71654 0z" fill-rule="evenodd"/><path fill="#5eb9e0" d="m226.60928 405.3548l-111.71654 0l0 56.81888l111.71654 0z" fill-rule="evenodd"/><path fill="#5eb9e0" d="m481.67596 462.19058l0 -228.28346l56.81891 0l0 228.28346z" fill-rule="evenodd"/><path fill="#5eb9e0" d="m631.55865 360.81348l99.84015 99.84018l40.190674 -40.190674l-99.84015 -99.84021z" fill-rule="evenodd"/><path fill="#707070" d="m631.5738 360.8286l99.84021 99.84018l40.190674 -40.190674l-99.84021 -99.84018z" fill-rule="evenodd"/><path fill="#707070" d="m723.36127 269.04065l-78.98102 78.98102l40.190674 40.190704l78.98102 -78.98105z" fill-rule="evenodd"/><path fill="#707070" d="m782.9801 328.6595l-78.98102 78.98105l40.190674 40.190674l78.98102 -78.98105z" fill-rule="evenodd"/><path fill="#707070" d="m697.7388 294.66296l125.26398 125.26398l40.190674 -40.190674l-125.26398 -125.26398z" fill-rule="evenodd"/></g></svg>
