<?xml version="1.0" encoding="UTF-8" standalone="no"?>
<!DOCTYPE svg PUBLIC "-//W3C//DTD SVG 1.1//EN"
 "http://www.w3.org/Graphics/SVG/1.1/DTD/svg11.dtd">
<!-- Generated by graphviz version 2.47.3 (20210619.1520)
 -->
<!-- Title: G Pages: 1 -->
<svg width="815pt" height="476pt"
 viewBox="0.00 0.00 815.09 476.00" xmlns="http://www.w3.org/2000/svg" xmlns:xlink="http://www.w3.org/1999/xlink">
<g id="graph0" class="graph" transform="scale(1 1) rotate(0) translate(4 472)">
<title>G</title>
<polygon fill="white" stroke="transparent" points="-4,4 -4,-472 811.09,-472 811.09,4 -4,4"/>
<!-- util -->
<g id="node1" class="node">
<title>util</title>
<ellipse fill="none" stroke="black" cx="425" cy="-450" rx="27" ry="18"/>
<text text-anchor="middle" x="425" y="-446.3" font-family="Times,serif" font-size="14.00">util</text>
</g>
<!-- alpha -->
<g id="node3" class="node">
<title>alpha</title>
<ellipse fill="none" stroke="black" cx="636" cy="-378" rx="30.59" ry="18"/>
<text text-anchor="middle" x="636" y="-374.3" font-family="Times,serif" font-size="14.00">alpha</text>
</g>
<!-- util&#45;&gt;alpha -->
<g id="edge1" class="edge">
<title>util&#45;&gt;alpha</title>
<path fill="none" stroke="black" d="M449.05,-441.75C481.45,-431.89 540.86,-413.46 591,-396 594.33,-394.84 597.8,-393.6 601.25,-392.33"/>
<polygon fill="black" stroke="black" points="602.7,-395.53 610.86,-388.76 600.26,-388.97 602.7,-395.53"/>
</g>
<!-- link_check -->
<g id="node4" class="node">
<title>link_check</title>
<ellipse fill="none" stroke="black" cx="618" cy="-306" rx="50.89" ry="18"/>
<text text-anchor="middle" x="618" y="-302.3" font-family="Times,serif" font-size="14.00">link_check</text>
</g>
<!-- util&#45;&gt;link_check -->
<g id="edge16" class="edge">
<title>util&#45;&gt;link_check</title>
<path fill="none" stroke="black" d="M450.2,-442.97C477.65,-435.46 521.8,-420.53 553,-396 574.94,-378.75 592.99,-352.25 604.45,-332.65"/>
<polygon fill="black" stroke="black" points="607.51,-334.35 609.39,-323.93 601.42,-330.9 607.51,-334.35"/>
</g>
<!-- breakdown -->
<g id="node5" class="node">
<title>breakdown</title>
<ellipse fill="none" stroke="black" cx="616" cy="-234" rx="51.19" ry="18"/>
<text text-anchor="middle" x="616" y="-230.3" font-family="Times,serif" font-size="14.00">breakdown</text>
</g>
<!-- util&#45;&gt;breakdown -->
<g id="edge3" class="edge">
<title>util&#45;&gt;breakdown</title>
<path fill="none" stroke="black" d="M448.21,-440.39C468.32,-431.88 496.94,-417.06 515,-396 548.63,-356.78 528.63,-330.5 558,-288 565.89,-276.58 576.68,-265.86 586.81,-257.09"/>
<polygon fill="black" stroke="black" points="589.28,-259.59 594.73,-250.5 584.8,-254.21 589.28,-259.59"/>
</g>
<!-- vm -->
<g id="node7" class="node">
<title>vm</title>
<ellipse fill="none" stroke="black" cx="284" cy="-306" rx="27" ry="18"/>
<text text-anchor="middle" x="284" y="-302.3" font-family="Times,serif" font-size="14.00">vm</text>
</g>
<!-- util&#45;&gt;vm -->
<g id="edge33" class="edge">
<title>util&#45;&gt;vm</title>
<path fill="none" stroke="black" d="M402.49,-439.75C382.84,-430.81 354.5,-415.73 335,-396 317.09,-377.88 303.27,-352.22 294.56,-333.1"/>
<polygon fill="black" stroke="black" points="297.7,-331.53 290.48,-323.78 291.29,-334.34 297.7,-331.53"/>
</g>
<!-- debug_vm -->
<g id="node8" class="node">
<title>debug_vm</title>
<ellipse fill="none" stroke="black" cx="77" cy="-234" rx="49.29" ry="18"/>
<text text-anchor="middle" x="77" y="-230.3" font-family="Times,serif" font-size="14.00">debug_vm</text>
</g>
<!-- util&#45;&gt;debug_vm -->
<g id="edge8" class="edge">
<title>util&#45;&gt;debug_vm</title>
<path fill="none" stroke="black" d="M399.29,-443.91C366.21,-436.64 307.69,-421.28 263,-396 195.96,-358.07 131.06,-293.67 98.56,-258.93"/>
<polygon fill="black" stroke="black" points="101.12,-256.54 91.76,-251.58 95.98,-261.29 101.12,-256.54"/>
</g>
<!-- dump -->
<g id="node9" class="node">
<title>dump</title>
<ellipse fill="none" stroke="black" cx="176" cy="-234" rx="31.4" ry="18"/>
<text text-anchor="middle" x="176" y="-230.3" font-family="Times,serif" font-size="14.00">dump</text>
</g>
<!-- util&#45;&gt;dump -->
<g id="edge10" class="edge">
<title>util&#45;&gt;dump</title>
<path fill="none" stroke="black" d="M400.65,-442.06C375.03,-433.93 334.43,-418.63 305,-396 254.44,-357.11 211.8,-294.42 190.52,-259.86"/>
<polygon fill="black" stroke="black" points="193.52,-258.04 185.34,-251.3 187.53,-261.67 193.52,-258.04"/>
</g>
<!-- pushout -->
<g id="node10" class="node">
<title>pushout</title>
<ellipse fill="none" stroke="black" cx="417" cy="-162" rx="39.79" ry="18"/>
<text text-anchor="middle" x="417" y="-158.3" font-family="Times,serif" font-size="14.00">pushout</text>
</g>
<!-- util&#45;&gt;pushout -->
<g id="edge29" class="edge">
<title>util&#45;&gt;pushout</title>
<path fill="none" stroke="black" d="M424.52,-431.97C423.19,-384.29 419.41,-249.18 417.77,-190.63"/>
<polygon fill="black" stroke="black" points="421.26,-190.2 417.48,-180.31 414.27,-190.4 421.26,-190.2"/>
</g>
<!-- match -->
<g id="node11" class="node">
<title>match</title>
<ellipse fill="none" stroke="black" cx="508" cy="-162" rx="33.29" ry="18"/>
<text text-anchor="middle" x="508" y="-158.3" font-family="Times,serif" font-size="14.00">match</text>
</g>
<!-- util&#45;&gt;match -->
<g id="edge25" class="edge">
<title>util&#45;&gt;match</title>
<path fill="none" stroke="black" d="M435.7,-433.34C456.91,-401.16 503.5,-324.5 518,-252 522.14,-231.32 519.08,-207.58 515.3,-189.81"/>
<polygon fill="black" stroke="black" points="518.66,-188.8 512.97,-179.86 511.84,-190.4 518.66,-188.8"/>
</g>
<!-- eval -->
<g id="node12" class="node">
<title>eval</title>
<ellipse fill="none" stroke="black" cx="383" cy="-90" rx="27" ry="18"/>
<text text-anchor="middle" x="383" y="-86.3" font-family="Times,serif" font-size="14.00">eval</text>
</g>
<!-- util&#45;&gt;eval -->
<g id="edge12" class="edge">
<title>util&#45;&gt;eval</title>
<path fill="none" stroke="black" d="M410.7,-434.23C388.69,-409.85 349,-358.73 349,-307 349,-307 349,-307 349,-233 349,-191.68 362.78,-145.42 372.8,-117.25"/>
<polygon fill="black" stroke="black" points="376.13,-118.33 376.28,-107.74 369.56,-115.92 376.13,-118.33"/>
</g>
<!-- main -->
<g id="node13" class="node">
<title>main</title>
<ellipse fill="none" stroke="black" cx="215" cy="-18" rx="28.7" ry="18"/>
<text text-anchor="middle" x="215" y="-14.3" font-family="Times,serif" font-size="14.00">main</text>
</g>
<!-- util&#45;&gt;main -->
<g id="edge19" class="edge">
<title>util&#45;&gt;main</title>
<path fill="none" stroke="black" d="M398.41,-445.99C305.37,-434.75 0,-391.41 0,-307 0,-307 0,-307 0,-161 0,-76.85 116.1,-39.7 177.66,-25.91"/>
<polygon fill="black" stroke="black" points="178.72,-29.26 187.77,-23.74 177.26,-22.42 178.72,-29.26"/>
</g>
<!-- redir -->
<g id="node14" class="node">
<title>redir</title>
<ellipse fill="none" stroke="black" cx="481" cy="-234" rx="27.9" ry="18"/>
<text text-anchor="middle" x="481" y="-230.3" font-family="Times,serif" font-size="14.00">redir</text>
</g>
<!-- util&#45;&gt;redir -->
<g id="edge32" class="edge">
<title>util&#45;&gt;redir</title>
<path fill="none" stroke="black" d="M429.55,-431.82C432.3,-421.45 435.86,-407.97 439,-396 451.39,-348.81 465.71,-293.8 474.03,-261.84"/>
<polygon fill="black" stroke="black" points="477.47,-262.48 476.6,-251.93 470.7,-260.72 477.47,-262.48"/>
</g>
<!-- syntax -->
<g id="node2" class="node">
<title>syntax</title>
<ellipse fill="none" stroke="black" cx="691" cy="-450" rx="34.39" ry="18"/>
<text text-anchor="middle" x="691" y="-446.3" font-family="Times,serif" font-size="14.00">syntax</text>
</g>
<!-- syntax&#45;&gt;alpha -->
<g id="edge2" class="edge">
<title>syntax&#45;&gt;alpha</title>
<path fill="none" stroke="black" d="M678.52,-433.12C671.49,-424.17 662.57,-412.81 654.71,-402.81"/>
<polygon fill="black" stroke="black" points="657.36,-400.52 648.43,-394.82 651.86,-404.85 657.36,-400.52"/>
</g>
<!-- debug_syntax -->
<g id="node6" class="node">
<title>debug_syntax</title>
<ellipse fill="none" stroke="black" cx="746" cy="-378" rx="61.19" ry="18"/>
<text text-anchor="middle" x="746" y="-374.3" font-family="Times,serif" font-size="14.00">debug_syntax</text>
</g>
<!-- syntax&#45;&gt;debug_syntax -->
<g id="edge6" class="edge">
<title>syntax&#45;&gt;debug_syntax</title>
<path fill="none" stroke="black" d="M703.48,-433.12C710.31,-424.42 718.93,-413.45 726.62,-403.66"/>
<polygon fill="black" stroke="black" points="729.38,-405.82 732.8,-395.8 723.87,-401.5 729.38,-405.82"/>
</g>
<!-- alpha&#45;&gt;link_check -->
<g id="edge17" class="edge">
<title>alpha&#45;&gt;link_check</title>
<path fill="none" stroke="black" d="M631.64,-360.05C629.64,-352.26 627.21,-342.82 624.96,-334.08"/>
<polygon fill="black" stroke="black" points="628.32,-333.09 622.44,-324.28 621.54,-334.83 628.32,-333.09"/>
</g>
<!-- alpha&#45;&gt;breakdown -->
<g id="edge5" class="edge">
<title>alpha&#45;&gt;breakdown</title>
<path fill="none" stroke="black" d="M652,-362.48C661.56,-352.68 672.83,-338.86 678,-324 683.26,-308.89 684.7,-302.53 678,-288 672.05,-275.09 661.23,-264.15 650.28,-255.63"/>
<polygon fill="black" stroke="black" points="652.1,-252.62 641.95,-249.58 647.99,-258.29 652.1,-252.62"/>
</g>
<!-- link_check&#45;&gt;breakdown -->
<g id="edge4" class="edge">
<title>link_check&#45;&gt;breakdown</title>
<path fill="none" stroke="black" d="M617.51,-287.7C617.29,-279.98 617.02,-270.71 616.77,-262.11"/>
<polygon fill="black" stroke="black" points="620.27,-262 616.49,-252.1 613.28,-262.2 620.27,-262"/>
</g>
<!-- breakdown&#45;&gt;pushout -->
<g id="edge30" class="edge">
<title>breakdown&#45;&gt;pushout</title>
<path fill="none" stroke="black" d="M580.88,-220.65C546.31,-208.48 493.56,-189.93 457.29,-177.17"/>
<polygon fill="black" stroke="black" points="458.13,-173.76 447.53,-173.74 455.8,-180.36 458.13,-173.76"/>
</g>
<!-- breakdown&#45;&gt;match -->
<g id="edge27" class="edge">
<title>breakdown&#45;&gt;match</title>
<path fill="none" stroke="black" d="M592.57,-217.81C576.29,-207.26 554.5,-193.14 537.11,-181.87"/>
<polygon fill="black" stroke="black" points="538.77,-178.77 528.48,-176.27 534.96,-184.65 538.77,-178.77"/>
</g>
<!-- breakdown&#45;&gt;eval -->
<g id="edge15" class="edge">
<title>breakdown&#45;&gt;eval</title>
<path fill="none" stroke="black" d="M607.67,-216.05C596.99,-196.01 576.62,-163 550,-144 510.46,-115.77 455.24,-102.13 419.31,-95.87"/>
<polygon fill="black" stroke="black" points="419.7,-92.39 409.27,-94.22 418.57,-99.3 419.7,-92.39"/>
</g>
<!-- breakdown&#45;&gt;main -->
<g id="edge23" class="edge">
<title>breakdown&#45;&gt;main</title>
<path fill="none" stroke="black" d="M613.27,-215.82C609.33,-196.18 600.29,-164.15 581,-144 491.16,-50.16 328.05,-26.76 253.75,-20.93"/>
<polygon fill="black" stroke="black" points="253.67,-17.42 243.45,-20.19 253.17,-24.4 253.67,-17.42"/>
</g>
<!-- vm&#45;&gt;debug_vm -->
<g id="edge7" class="edge">
<title>vm&#45;&gt;debug_vm</title>
<path fill="none" stroke="black" d="M260.25,-296.97C226.46,-285.54 163.89,-264.38 121.36,-250"/>
<polygon fill="black" stroke="black" points="122.41,-246.66 111.81,-246.77 120.16,-253.29 122.41,-246.66"/>
</g>
<!-- vm&#45;&gt;dump -->
<g id="edge9" class="edge">
<title>vm&#45;&gt;dump</title>
<path fill="none" stroke="black" d="M265.19,-292.81C248.49,-281.99 223.85,-266.01 204.69,-253.6"/>
<polygon fill="black" stroke="black" points="206.36,-250.5 196.06,-248 202.55,-256.38 206.36,-250.5"/>
</g>
<!-- vm&#45;&gt;pushout -->
<g id="edge28" class="edge">
<title>vm&#45;&gt;pushout</title>
<path fill="none" stroke="black" d="M297.73,-290.34C320.76,-265.75 367.36,-216 395,-186.49"/>
<polygon fill="black" stroke="black" points="397.64,-188.79 401.92,-179.1 392.53,-184 397.64,-188.79"/>
</g>
<!-- vm&#45;&gt;match -->
<g id="edge24" class="edge">
<title>vm&#45;&gt;match</title>
<path fill="none" stroke="black" d="M303.1,-292.89C342.28,-268.06 431.97,-211.2 478.61,-181.63"/>
<polygon fill="black" stroke="black" points="480.77,-184.41 487.34,-176.1 477.02,-178.5 480.77,-184.41"/>
</g>
<!-- vm&#45;&gt;eval -->
<g id="edge11" class="edge">
<title>vm&#45;&gt;eval</title>
<path fill="none" stroke="black" d="M286.89,-288.05C292.6,-257.59 307.25,-192.31 335,-144 341.67,-132.39 351.23,-121.16 360.07,-112.05"/>
<polygon fill="black" stroke="black" points="362.61,-114.46 367.25,-104.93 357.68,-109.49 362.61,-114.46"/>
</g>
<!-- vm&#45;&gt;main -->
<g id="edge18" class="edge">
<title>vm&#45;&gt;main</title>
<path fill="none" stroke="black" d="M279.89,-287.97C268.34,-240.08 235.5,-103.98 221.48,-45.85"/>
<polygon fill="black" stroke="black" points="224.84,-44.85 219.09,-35.94 218.03,-46.49 224.84,-44.85"/>
</g>
<!-- vm&#45;&gt;redir -->
<g id="edge31" class="edge">
<title>vm&#45;&gt;redir</title>
<path fill="none" stroke="black" d="M307.37,-296.7C342.14,-284.34 407.64,-261.07 447.5,-246.9"/>
<polygon fill="black" stroke="black" points="448.79,-250.16 457.04,-243.51 446.45,-243.56 448.79,-250.16"/>
</g>
<!-- debug_vm&#45;&gt;main -->
<g id="edge22" class="edge">
<title>debug_vm&#45;&gt;main</title>
<path fill="none" stroke="black" d="M87.83,-216.21C112.09,-178.58 170.9,-87.39 199.23,-43.46"/>
<polygon fill="black" stroke="black" points="202.31,-45.14 204.79,-34.84 196.42,-41.35 202.31,-45.14"/>
</g>
<!-- dump&#45;&gt;main -->
<g id="edge21" class="edge">
<title>dump&#45;&gt;main</title>
<path fill="none" stroke="black" d="M179.13,-215.85C185.89,-178.74 201.92,-90.75 210.07,-46.05"/>
<polygon fill="black" stroke="black" points="213.56,-46.4 211.91,-35.94 206.68,-45.15 213.56,-46.4"/>
</g>
<!-- pushout&#45;&gt;eval -->
<g id="edge13" class="edge">
<title>pushout&#45;&gt;eval</title>
<path fill="none" stroke="black" d="M408.77,-144.05C404.74,-135.77 399.81,-125.62 395.35,-116.42"/>
<polygon fill="black" stroke="black" points="398.44,-114.77 390.92,-107.31 392.14,-117.83 398.44,-114.77"/>
</g>
<!-- match&#45;&gt;eval -->
<g id="edge14" class="edge">
<title>match&#45;&gt;eval</title>
<path fill="none" stroke="black" d="M485.65,-148.49C465.04,-136.94 434.32,-119.74 411.86,-107.16"/>
<polygon fill="black" stroke="black" points="413.53,-104.08 403.09,-102.25 410.1,-110.19 413.53,-104.08"/>
</g>
<!-- eval&#45;&gt;main -->
<g id="edge20" class="edge">
<title>eval&#45;&gt;main</title>
<path fill="none" stroke="black" d="M360.69,-79.7C331.69,-67.62 280.82,-46.43 247.52,-32.55"/>
<polygon fill="black" stroke="black" points="248.79,-29.29 238.21,-28.67 246.1,-35.75 248.79,-29.29"/>
</g>
<!-- redir&#45;&gt;match -->
<g id="edge26" class="edge">
<title>redir&#45;&gt;match</title>
<path fill="none" stroke="black" d="M487.4,-216.41C490.51,-208.34 494.33,-198.43 497.83,-189.35"/>
<polygon fill="black" stroke="black" points="501.13,-190.55 501.46,-179.96 494.6,-188.03 501.13,-190.55"/>
</g>
</g>
</svg>
